<svg width="2678" height="1880" viewBox="0 0 2678 1880" fill="none" xmlns="http://www.w3.org/2000/svg">
<path d="M839.894 552.125C713.007 587.05 261.057 830.561 354.66 1212.65C448.264 1594.74 961.192 1805.49 1651.92 1567.21C2342.6 1328.92 2490.94 895.152 2142.94 604.068C1848 357.386 1329.89 417.258 839.935 552.125H839.894Z" fill="#22D172"/>
<path d="M1906.43 382.212L880.846 417.604C836.983 418.184 798.227 446.227 783.993 487.691L571.527 1039.41C568.317 1048.81 553.928 1059.64 554.16 1091.32C554.547 1149.34 590.093 1192.85 652.328 1192.85L1796.08 1179.63C1842.92 1179.08 1883.57 1147.25 1895.37 1101.92L2048.69 512.717C2055.19 487.73 2057.59 455.316 2041.5 430.562C2011.06 383.682 1965.92 376.333 1906.47 382.174L1906.43 382.212Z" fill="#1A2E44" stroke="#1A2E44" stroke-width="6.69153" stroke-linecap="round" stroke-linejoin="round"/>
<path d="M1948.28 378.73L852.378 393.158C813.041 393.661 778.307 418.841 765.543 456.012L558.492 1058.83C539.926 1112.83 580.462 1168.91 637.553 1168.25L1771.75 1155.14C1820.56 1154.56 1862.91 1121.41 1875.21 1074.19L2029.27 482.12C2043.01 429.362 2002.74 377.996 1948.24 378.73H1948.28Z" fill="white"/>
<path d="M1950.53 375.133C1922.75 375.481 1894.94 375.868 1867.17 376.216C1798.36 377.105 1729.55 378.034 1660.74 378.923C1571.27 380.084 1481.77 381.283 1392.31 382.443C1304.04 383.604 1215.77 384.764 1127.51 385.924C1060.59 386.814 993.715 387.704 926.799 388.555L871.062 389.289C856.867 389.483 842.904 389.289 828.979 392.925C799.119 400.816 773.629 422.128 761.755 450.751C759.898 455.238 758.389 459.918 756.804 464.521L735.53 526.408C708.764 604.308 681.998 682.208 655.27 760.108C628.775 837.235 602.28 914.362 575.784 991.488C568.783 1011.83 561.821 1032.18 554.82 1052.56C552.693 1058.75 550.527 1064.86 549.328 1071.28C543.912 1100.25 554.511 1130.7 576.635 1150.15C595.897 1167.05 619.415 1171.93 644.092 1171.62C659.448 1171.42 674.842 1171.27 690.198 1171.08C751.853 1170.38 813.546 1169.65 875.201 1168.95C961.03 1167.94 1046.86 1166.98 1132.69 1165.97C1223.43 1164.93 1314.17 1163.88 1404.91 1162.84C1481.46 1161.95 1557.97 1161.06 1634.52 1160.17C1676.48 1159.67 1718.41 1159.2 1760.38 1158.7C1786.06 1158.39 1810.78 1153.98 1832.9 1139.75C1856.77 1124.39 1873.94 1100.64 1881.29 1073.3C1882.3 1069.58 1883.22 1065.87 1884.19 1062.16C1900.05 1001.24 1915.91 940.277 1931.77 879.357C1954.28 792.87 1976.79 706.344 1999.3 619.857C2011.29 573.79 2023.71 527.8 2035.27 481.617C2049.04 426.77 2006.49 374.978 1950.6 375.055C1948.28 375.055 1943.68 375.829 1942.71 378.382C1941.78 380.819 1943.49 382.211 1946.04 382.211C1978.22 382.211 2007.54 401.628 2019.88 431.45C2026.96 448.585 2027.46 466.803 2022.86 484.595C2018.56 501.189 2014.23 517.782 2009.9 534.376C1990.17 610.149 1970.48 685.921 1950.76 761.694C1930.03 841.374 1909.29 921.053 1888.56 1000.73L1871.58 1066.02C1870.65 1069.62 1869.76 1073.26 1868.76 1076.81C1859.9 1108.22 1836.23 1134.68 1805.36 1145.82C1790.2 1151.27 1775.04 1151.47 1759.33 1151.66C1741.93 1151.85 1724.52 1152.05 1707.12 1152.28C1643.68 1153.01 1580.25 1153.75 1516.81 1154.48C1430.95 1155.49 1345.04 1156.46 1259.17 1157.46C1173.3 1158.47 1080.2 1159.55 990.736 1160.56C916.511 1161.41 842.285 1162.26 768.059 1163.15C727.949 1163.61 687.8 1164.08 647.689 1164.54C645.175 1164.54 642.699 1164.62 640.185 1164.62C615.005 1164.66 591.681 1153.21 576.442 1133.09C560.08 1111.47 556.174 1083.43 564.683 1057.86C565.921 1054.15 567.236 1050.44 568.513 1046.72C588.355 988.935 608.198 931.11 628.079 873.323C656.895 789.389 685.75 705.454 714.566 621.482C732.9 568.143 751.195 514.804 769.529 461.465C771.927 454.425 774.403 447.541 778.039 441.004C792.775 414.624 820.044 397.489 850.33 396.639C858.221 396.406 866.15 396.445 874.041 396.329C924.865 395.672 975.651 394.975 1026.48 394.318C1107.12 393.273 1187.81 392.19 1268.45 391.146C1358.77 389.947 1449.09 388.748 1539.4 387.588C1619.2 386.543 1698.99 385.499 1778.75 384.416L1925.96 382.482C1932.69 382.405 1939.42 382.289 1946.12 382.211C1948.44 382.211 1953 381.476 1954.01 378.885C1954.9 376.448 1953.23 375.017 1950.68 375.055L1950.53 375.133Z" fill="#1A2E44"/>
<path d="M1701.35 1081.99L607.888 1095.1C590.173 1095.3 577.602 1077.85 583.442 1061.14L793.51 459.408C797.068 449.235 806.584 442.389 817.375 442.273L1870.27 431.017C1887.32 430.824 1899.78 447.108 1895.14 463.508L1725.64 1063.42C1722.55 1074.33 1712.69 1081.87 1701.35 1082.03V1081.99Z" fill="#B4CDFF"/>
<path d="M1156.79 1372.98C1141.35 1406.63 1323.42 1435.68 1522.92 1428.48C1772.52 1419.43 1849.22 1395.88 1849.22 1391.66C1849.22 1387.45 1830.7 1379.86 1767.49 1373.13C1704.29 1366.4 1652.89 1366.56 1652.89 1366.56L1659.31 1382.38C1663.87 1403.85 1207.8 1435.95 1159.57 1378.43L1156.79 1373.02V1372.98Z" fill="#1A2E44"/>
<path d="M1292.97 1343.94L1230.43 1178.23L1552.05 1182.49C1552.05 1182.49 1654.74 1360.88 1659.31 1382.35C1663.87 1403.81 1207.8 1435.92 1159.57 1378.4C1120.46 1331.75 1489.89 1344.21 1489.89 1344.21" fill="white"/>
<path d="M1298.97 1342.35C1291.97 1323.78 1284.93 1305.18 1277.93 1286.61C1266.67 1256.79 1255.42 1226.97 1244.16 1197.19C1241.57 1190.34 1238.98 1183.49 1236.43 1176.65L1228.23 1181.98C1264.55 1182.45 1300.87 1182.95 1337.19 1183.42C1394.97 1184.19 1452.72 1184.92 1510.51 1185.7C1523.62 1185.85 1536.73 1186.05 1549.84 1186.2L1546.56 1184.92C1563.34 1214.09 1579.9 1243.41 1596.26 1272.84C1608.48 1294.85 1620.63 1316.9 1632.31 1339.18C1639.5 1352.91 1648.21 1367.18 1652.81 1382.07C1652.96 1382.61 1653.04 1383.62 1653.35 1384.05C1653.04 1383.58 1653.47 1383.5 1653.51 1383.23C1653.43 1384.32 1653.7 1382.11 1653.43 1383.23C1653.7 1381.92 1654.36 1383.27 1652.96 1383.47C1652.23 1383.58 1654.51 1382.73 1653.43 1383.19C1653.08 1383.35 1652.77 1383.54 1652.42 1383.66C1651.65 1383.97 1650.87 1384.28 1650.1 1384.59C1648.63 1385.17 1651.61 1384.12 1650.02 1384.59C1649.6 1384.74 1649.13 1384.86 1648.71 1385.01C1647.63 1385.36 1646.54 1385.67 1645.42 1385.98C1642.91 1386.68 1640.35 1387.26 1637.8 1387.84C1636.45 1388.15 1635.09 1388.42 1633.74 1388.69C1632.93 1388.84 1632.15 1389 1631.34 1389.15C1629.64 1389.5 1631.65 1389.11 1629.99 1389.42C1622.48 1390.78 1614.94 1391.97 1607.4 1393.02C1564.19 1399.01 1520.56 1402.19 1477.05 1404.39C1425.88 1407.02 1374.55 1408.03 1323.3 1406.36C1282.38 1405.05 1240.1 1403.19 1200.3 1392.86C1189.16 1389.96 1175.93 1386.06 1167.92 1378.79C1166.42 1377.43 1165.02 1375.96 1163.9 1374.3C1163.67 1373.95 1162.74 1371.59 1162.7 1370.89C1162.63 1368.61 1164.33 1366.95 1165.8 1366.02C1166.38 1365.63 1169.16 1364.09 1167.58 1364.9C1168.7 1364.32 1169.82 1363.82 1170.98 1363.31C1172.14 1362.81 1173.3 1362.39 1174.46 1361.96C1172.68 1362.62 1175.08 1361.77 1175.47 1361.65C1176.2 1361.42 1176.98 1361.19 1177.71 1360.95C1184.71 1358.87 1191.94 1357.4 1198.06 1356.35C1217.36 1353.06 1236.93 1351.36 1256.46 1350.01C1301.95 1346.91 1347.59 1346.33 1393.12 1346.41C1423.13 1346.49 1453.15 1346.87 1483.16 1347.76C1484.67 1347.8 1486.22 1347.84 1487.73 1347.92C1490.32 1348 1494.3 1347.11 1495.58 1344.52C1496.85 1341.92 1494.53 1340.57 1492.21 1340.49C1481.77 1340.14 1471.33 1339.91 1460.88 1339.72C1435.43 1339.22 1409.98 1338.95 1384.53 1339.02C1353.2 1339.1 1321.87 1339.56 1290.58 1340.92C1262.57 1342.12 1234.41 1343.78 1206.64 1347.88C1196.32 1349.43 1185.91 1351.21 1175.93 1354.22C1168.78 1356.35 1161 1359.02 1155.35 1364.13C1144.37 1374.1 1156.48 1384.74 1165.8 1389.85C1183.86 1399.71 1205.52 1403.31 1225.6 1406.29C1255.22 1410.73 1285.16 1412.63 1315.06 1413.71C1349.37 1414.91 1383.72 1414.83 1417.99 1413.98C1452.26 1413.13 1485.75 1411.55 1519.56 1409.07C1547.45 1407.06 1575.33 1404.55 1603.07 1400.79C1620.24 1398.47 1638.3 1396.42 1654.67 1390.43C1658.3 1389.11 1664.45 1386.79 1665.34 1382.42C1665.77 1380.37 1664.53 1377.9 1663.79 1376.04C1662.29 1372.09 1660.47 1368.23 1658.65 1364.4C1645.73 1337.17 1630.96 1310.75 1616.41 1284.37C1601.87 1257.99 1585.7 1229.25 1570.07 1201.87C1566.24 1195.14 1562.57 1188.21 1558.47 1181.6C1556.61 1178.58 1553.83 1178.77 1550.62 1178.74L1495.65 1178C1464.67 1177.58 1433.65 1177.19 1402.67 1176.76C1371.69 1176.34 1338.54 1175.91 1306.51 1175.49C1284.97 1175.22 1263.46 1174.91 1241.92 1174.64C1238.86 1174.6 1235.77 1174.56 1232.71 1174.52C1230.55 1174.52 1223.08 1176.11 1224.51 1179.86C1231.51 1198.42 1238.55 1217.03 1245.55 1235.59C1256.81 1265.42 1268.07 1295.24 1279.32 1325.02C1281.91 1331.87 1284.5 1338.71 1287.06 1345.56C1288.8 1350.16 1300.67 1346.68 1299.01 1342.35H1298.97Z" fill="#1A2E44"/>
<path d="M1233.41 1186.16C1233.41 1186.16 1541.42 1198.81 1624.07 1321.34L1555.26 1188.13L1544.24 1165.77L1216.86 1177.07L1233.41 1186.12V1186.16Z" fill="#1A2E44"/>
<path d="M1946.31 629.516C1942.13 645.761 1926.04 660.188 1910.34 661.736C1894.63 663.283 1885.31 651.369 1889.49 635.085C1893.66 618.84 1909.76 604.413 1925.46 602.866C1941.16 601.318 1950.48 613.232 1946.31 629.516Z" fill="white"/>
<path d="M1942.29 629.865C1939.19 641.314 1930.45 651.448 1919.7 656.399C1911.15 660.344 1899.82 660.46 1894.71 651.254C1889.3 641.507 1894.32 628.704 1900.67 620.698C1907.01 612.691 1918.15 604.375 1929.41 605.652C1941.59 607.044 1944.76 619.576 1942.29 629.865C1941.4 633.539 1949.52 632.534 1950.33 629.169C1953.19 617.333 1949.06 604.336 1936.29 600.894C1922.41 597.142 1907.55 604.568 1897.88 614.238C1888.75 623.367 1880.82 638.645 1885.93 651.68C1891.04 664.715 1905 666.533 1916.6 663.206C1932.54 658.681 1946 645.143 1950.33 629.13C1951.3 625.533 1943.18 626.5 1942.29 629.826V629.865Z" fill="#1A2E44"/>
<path d="M1877.5 877.42C1873.44 893.704 1858.59 904.302 1842.88 905.926C1827.22 907.551 1817.78 895.676 1821.88 879.431C1825.98 863.186 1841.95 848.642 1857.66 847.018C1873.36 845.393 1881.6 861.174 1877.5 877.42Z" fill="white"/>
<path d="M1873.52 877.96C1870.58 889.061 1862.46 898.112 1851.66 902.019C1842.73 905.268 1831.55 904.649 1826.95 895.056C1822.35 885.464 1826.6 872.893 1832.83 864.616C1839.06 856.338 1850.35 846.939 1861.26 849.337C1873.67 852.084 1876.03 867.594 1873.56 877.96C1872.9 880.668 1880.91 879.469 1881.53 876.877C1884.23 865.428 1881.53 850.343 1868.99 845.972C1855.73 841.37 1839.98 849.492 1830.7 858.698C1821.42 867.904 1813.41 882.602 1818.36 895.675C1823.31 908.749 1837.2 909.561 1848.65 906.892C1863.93 903.295 1877.43 892.349 1881.53 876.877C1882.22 874.208 1874.25 875.369 1873.56 877.96H1873.52Z" fill="#1A2E44"/>
<path d="M1969.32 535.649H1916.14L1931.07 482.465H1984.25L1969.32 535.649Z" fill="#EEEEEE"/>
<path d="M1970.79 532.977H1917.61L1920.2 535.259C1925.15 517.544 1930.14 499.79 1935.09 482.075L1929.64 485.092H1982.82L1980.23 482.81C1975.28 500.525 1970.29 518.279 1965.34 535.994C1964.37 539.436 1972.49 538.43 1973.38 535.22C1978.33 517.505 1983.32 499.751 1988.28 482.036C1988.66 480.682 1986.77 479.754 1985.68 479.754H1932.5C1930.37 479.754 1927.7 480.45 1927.05 482.771C1922.1 500.486 1917.11 518.24 1912.15 535.955C1911.77 537.309 1913.66 538.237 1914.75 538.237H1967.93C1969.71 538.237 1972.3 537.734 1973.15 535.878C1973.89 534.214 1972.49 532.899 1970.83 532.899L1970.79 532.977Z" fill="#1A2E44"/>
<path d="M1904.46 782.157H1858.97C1855.1 782.157 1852.32 778.482 1853.36 774.73L1866.2 728.973H1914.2C1916.8 728.973 1918.69 731.448 1917.99 733.962L1904.5 782.157H1904.46Z" fill="#EEEEEE"/>
<path d="M1907.05 780.571H1865.04C1862.45 780.571 1859.78 780.958 1858.04 778.444C1856.3 775.929 1857.38 773.57 1858.04 771.133L1864.58 747.732C1866.4 741.234 1868.22 734.736 1870.03 728.238L1863.5 730.558H1907.28C1909.29 730.558 1912.16 729.94 1913.47 731.912C1914.79 733.885 1913.47 736.476 1912.93 738.41L1906 763.088C1904.15 769.702 1902.29 776.277 1900.47 782.892C1900.05 784.4 1907.78 783.433 1908.33 781.46C1912.43 766.878 1916.49 752.296 1920.59 737.714C1921.05 736.012 1921.82 734.194 1921.98 732.415C1922.37 728.238 1918.42 727.387 1915.21 727.387H1868.72C1867.29 727.387 1862.68 727.89 1862.18 729.708C1858.27 743.709 1854.33 757.711 1850.42 771.713C1849.92 773.493 1849.07 775.62 1849.11 777.515C1849.22 782.079 1853.44 783.704 1857.27 783.743C1864.85 783.859 1872.47 783.743 1880.05 783.743H1901.83C1903.65 783.743 1905.97 783.356 1907.47 782.234C1908.56 781.422 1908.75 780.571 1907.01 780.571H1907.05Z" fill="#1A2E44"/>
<path d="M1835.42 1028.7H1790.9C1786.53 1028.7 1783.39 1024.56 1784.55 1020.34L1795.5 981.236C1796.47 977.832 1799.56 975.473 1803.08 975.473H1850.31L1835.42 1028.66V1028.7Z" fill="#EEEEEE"/>
<path d="M1836.85 1026.03H1807.49C1802.77 1026.03 1798.02 1026.1 1793.3 1026.03C1791.05 1025.99 1789.16 1025.17 1788.5 1022.74C1788.04 1021.07 1788.7 1019.45 1789.12 1017.86L1798.37 984.871C1799.06 982.396 1799.6 978.45 1802.27 978.141C1806.37 977.599 1810.9 978.141 1815.04 978.141H1848.84L1846.29 975.897C1841.34 993.613 1836.35 1011.37 1831.4 1029.08C1830.43 1032.49 1838.55 1031.48 1839.44 1028.31C1844.39 1010.59 1849.38 992.839 1854.33 975.124C1854.72 973.77 1852.83 972.88 1851.78 972.88H1820.1C1810.39 972.88 1794.96 970.173 1791.36 982.125C1788 993.303 1785.06 1004.64 1781.89 1015.89C1780.46 1020.96 1778.75 1026.53 1784.4 1029.97C1787.96 1032.14 1793.18 1031.4 1797.13 1031.4H1833.95C1835.73 1031.4 1838.32 1030.9 1839.17 1029.08C1839.91 1027.42 1838.51 1026.14 1836.85 1026.14V1026.03Z" fill="#1A2E44"/>
<path d="M1041.37 469.352L823.293 471.402L626.453 1043.35C625.022 1047.45 628.116 1051.71 632.449 1051.67L837.565 1048.96C841.085 1048.92 844.218 1046.64 845.34 1043.31L1041.33 469.352H1041.37Z" fill="white" stroke="#1A2E44" stroke-width="6.69153" stroke-linecap="round" stroke-linejoin="round"/>
<path d="M828.554 737.168H778.194C774.713 737.168 771.58 739.411 770.458 742.699L732.823 853.786H789.024L828.554 737.168Z" fill="#EEEEEE" stroke="#1A2E44" stroke-width="6.69153" stroke-linecap="round" stroke-linejoin="round"/>
<path d="M893.419 496.621H854.005L840.815 535.533C839.423 539.633 842.479 543.887 846.811 543.887H887.463L900.265 506.136C901.851 501.456 898.37 496.621 893.419 496.621Z" fill="#EEEEEE" stroke="#1A2E44" stroke-width="6.69153" stroke-linecap="round" stroke-linejoin="round"/>
<path d="M961.066 578.816H829.478C827.893 578.816 824.527 579.551 823.909 581.408C818.571 597.15 813.233 612.932 807.896 628.674C807.47 629.912 809.559 630.105 810.255 630.105H948.727C950.313 630.105 953.678 629.37 954.297 627.514C957.198 618.927 960.137 610.34 963.038 601.715C964.547 597.266 966.133 592.818 967.564 588.37C969.111 583.574 967.448 579.551 961.955 578.894C960.292 578.7 957.469 579.087 956.308 580.402C955.38 581.485 955.07 582.568 956.966 582.8C962.381 583.458 959.751 589.221 958.706 592.277L953.871 606.511C951.357 613.899 948.843 621.325 946.329 628.713L951.899 626.121H813.427L815.786 627.552C821.124 611.81 826.462 596.029 831.799 580.286L826.229 582.878H957.817C960.486 582.878 966.403 578.894 961.066 578.894V578.816Z" fill="#1A2E44"/>
<path d="M943.434 644.223H804.962C803.608 644.223 802.525 645.151 802.1 646.389C797.884 658.766 793.706 671.144 789.49 683.56C787.363 689.826 788.755 696.981 796.762 697.445C799.16 697.6 801.597 697.445 803.995 697.445H927.421C928.774 697.445 929.857 696.517 930.283 695.279C935.621 679.537 940.958 663.756 946.296 648.013C947.534 644.377 941.809 642.83 940.572 646.427C935.234 662.17 929.896 677.951 924.558 693.694L927.421 691.528H799.663C796.414 691.528 793.629 690.986 794.673 686.809C796.491 679.537 799.585 672.343 801.983 665.264C803.917 659.54 805.89 653.776 807.824 648.052L804.962 650.218H943.434C947.263 650.218 947.263 644.3 943.434 644.3V644.223Z" fill="#1A2E44"/>
<path d="M988.998 496.621H939.527L926.298 535.61C924.906 539.671 927.923 543.887 932.216 543.887H972.946L988.959 496.621H988.998Z" fill="#EEEEEE" stroke="#1A2E44" stroke-width="6.69153" stroke-linecap="round" stroke-linejoin="round"/>
<path d="M908.737 737.168H852.536L815.326 846.94C814.205 850.305 816.68 853.786 820.239 853.786H863.018C866.731 853.786 870.019 851.427 871.218 847.907L908.776 737.168H908.737Z" fill="#EEEEEE" stroke="#1A2E44" stroke-width="6.69153" stroke-linecap="round" stroke-linejoin="round"/>
<path d="M1384.42 774.301H1248.07C1244.55 774.301 1241.38 776.544 1240.26 779.909L1150.48 1044.75H1301.18C1301.18 1044.75 1354.09 895.328 1370.65 845.161C1375.06 831.778 1385.54 797.934 1390.33 782.385C1391.57 778.362 1388.55 774.301 1384.34 774.301H1384.42Z" fill="white" stroke="#1A2E44" stroke-width="6.69153" stroke-linecap="round" stroke-linejoin="round"/>
<path d="M1715.89 962.82H1380.35L1363.41 1012.79H1701.51L1715.89 962.82Z" fill="white" stroke="#1A2E44" stroke-width="6.69153" stroke-linecap="round" stroke-linejoin="round"/>
<path d="M1400.93 876.991H1698.41C1712.1 876.991 1725.83 877.3 1739.53 876.991C1739.72 876.991 1739.95 876.991 1740.15 876.991C1741.85 876.991 1744.67 876.526 1745.37 874.631C1745.99 872.968 1744.83 871.614 1743.05 871.614H1445.56C1431.87 871.614 1418.14 871.305 1404.45 871.614C1404.25 871.614 1404.02 871.614 1403.83 871.614C1402.13 871.614 1399.3 872.078 1398.61 873.974C1397.99 875.637 1399.15 876.991 1400.93 876.991Z" fill="#1A2E44"/>
<path d="M1387.7 920.161H1685.19C1698.88 920.161 1712.65 920.625 1726.3 920.161C1726.49 920.161 1726.73 920.161 1726.92 920.161C1728.43 920.161 1731.48 919.813 1732.57 918.653C1733.34 917.802 1734.11 917.183 1732.18 917.183H1434.7C1421.01 917.183 1407.24 916.719 1393.58 917.183C1393.39 917.183 1393.16 917.183 1392.96 917.183C1391.45 917.183 1388.4 917.531 1387.32 918.691C1386.54 919.542 1385.77 920.161 1387.7 920.161Z" fill="#1A2E44"/>
<path d="M1516.31 493.914H1841.45C1843.5 493.914 1847.79 493.063 1848.92 491.09C1850.11 489.002 1847.91 488.77 1846.13 488.77H1520.99C1518.94 488.77 1514.65 489.62 1513.53 491.593C1512.33 493.682 1514.53 493.914 1516.31 493.914Z" fill="#1A2E44"/>
<path d="M1505.63 538.28H1830.77C1832.44 538.28 1835.3 537.816 1836 535.959C1836.61 534.296 1835.45 533.02 1833.67 533.02H1508.54C1506.87 533.02 1504.01 533.484 1503.31 535.34C1502.7 537.003 1503.86 538.28 1505.63 538.28Z" fill="#1A2E44"/>
<path d="M1323.96 850.146C1316.53 870.53 1293.98 887.085 1273.56 887.085C1253.14 887.085 1242.66 870.53 1250.08 850.146C1257.51 829.762 1280.06 813.207 1300.48 813.207C1320.9 813.207 1331.39 829.762 1323.96 850.146Z" stroke="#1A2E44" stroke-width="6.69153" stroke-linecap="round" stroke-linejoin="round"/>
<path d="M763.535 926.427C745.356 945.766 727.138 965.067 708.958 984.407C706.367 987.153 703.775 989.9 701.184 992.685C699.907 994.077 702.344 994.386 703.156 994.386H787.245C788.406 994.386 793.318 993.419 792.893 991.485C788.444 970.637 784.228 949.75 779.548 928.98C777.885 921.669 769.221 921.553 764.076 926.001C760.866 928.786 768.718 927.974 770.304 926.62C768.757 926.62 768.718 926.891 770.149 927.51C770.768 928.09 771.155 928.786 771.309 929.637C771.309 929.715 771.309 929.792 771.348 929.869C771.503 930.295 771.542 930.798 771.658 931.223C772.16 933.389 772.586 935.555 773.05 937.721L777.808 960C780.206 971.217 782.604 982.434 785.002 993.613L790.649 990.712H706.56L708.533 992.414C726.712 973.074 744.93 953.773 763.109 934.433C765.701 931.687 768.293 928.941 770.884 926.156C772.16 924.802 769.762 924.493 768.911 924.454C767.171 924.454 764.811 925.15 763.612 926.465L763.535 926.427Z" fill="#1A2E44"/>
<path d="M1223.12 945.687L1208.16 986.842L1236.28 1007.42L1279.4 986.842L1294.37 945.687L1266.25 925.109L1223.12 945.687Z" stroke="#1A2E44" stroke-width="6.69153" stroke-linecap="round" stroke-linejoin="round"/>
<path d="M654.422 505.204C631.524 497.662 608.548 490.351 585.534 483.157C541.71 469.387 497.732 455.927 453.405 443.82C433.292 438.327 413.101 432.912 392.64 429.044C390.01 428.542 386.219 429.586 384.169 431.327C382.313 432.912 382.7 434.382 385.098 434.846C425.131 442.466 464.429 454.65 503.418 466.254C542.406 477.858 581.55 490.119 620.461 502.651C628.584 505.243 636.668 507.873 644.752 510.542C647.382 511.393 650.825 510.581 653.184 509.227C654.422 508.492 657.13 506.132 654.422 505.243V505.204Z" fill="#1A2E44"/>
<path d="M669.196 458.135C620.112 438.524 570.603 419.301 520.203 403.287C508.252 399.497 495.835 395.165 483.303 393.734C480.518 393.424 477.463 394.12 474.949 395.319C474.175 395.706 470.694 397.911 473.44 398.22C484.115 399.458 494.636 402.901 504.848 406.072C520.513 410.907 535.985 416.245 551.379 421.776C580.814 432.297 610.055 443.398 639.22 454.77C645.447 457.206 651.674 459.643 657.902 462.119C660.223 463.047 663.317 462.157 665.56 461.345C665.986 461.19 670.976 458.831 669.158 458.135H669.196Z" fill="#1A2E44"/>
<path d="M627.928 565.469H514.559C507.558 565.469 505.508 574.674 513.63 574.674H626.999C634 574.674 636.05 565.469 627.928 565.469Z" fill="#1A2E44"/>
<path d="M2130.62 430.71C2148.61 424.521 2166.55 418.294 2184.54 412.105C2213.2 402.203 2241.9 392.301 2270.56 382.399C2277.18 380.117 2283.83 377.835 2290.44 375.514C2291.8 375.05 2296.25 373.309 2294.62 371.298C2293.07 369.442 2287.04 371.453 2285.45 371.994C2267.47 378.183 2249.52 384.41 2231.53 390.599C2202.87 400.501 2174.17 410.403 2145.51 420.305C2138.9 422.587 2132.25 424.869 2125.63 427.19C2124.28 427.654 2119.83 429.395 2121.45 431.406C2123 433.262 2129.03 431.251 2130.62 430.71Z" fill="#1A2E44"/>
<path d="M2127.29 491.864C2161.44 488.576 2195.56 485.289 2229.71 482.04C2234.58 481.576 2239.5 481.111 2244.37 480.647C2246.38 480.454 2250.83 479.139 2251.18 476.663C2251.53 473.994 2247.7 474.033 2246.03 474.226C2211.88 477.514 2177.76 480.802 2143.61 484.051C2138.74 484.515 2133.83 484.979 2128.95 485.443C2126.94 485.637 2122.49 486.952 2122.14 489.427C2121.8 492.096 2125.62 492.058 2127.29 491.864Z" fill="#1A2E44"/>
<path d="M2125.97 534.138H2225.77C2228.51 534.138 2232.27 533.403 2233.58 530.58C2234.74 528.104 2232.54 526.016 2230.06 526.016H2130.27C2127.52 526.016 2123.77 526.751 2122.45 529.574C2121.29 532.05 2123.5 534.138 2125.97 534.138Z" fill="#1A2E44"/>
<path d="M1152.8 215.888C1162.24 252.517 1171.72 289.185 1181.16 325.815C1182.47 330.959 1183.79 336.065 1185.14 341.209C1186.03 344.651 1194 342.563 1193.11 339.082C1183.67 302.452 1174.19 265.784 1164.76 229.155C1163.44 224.01 1162.13 218.905 1160.77 213.76C1159.88 210.318 1151.91 212.407 1152.8 215.888Z" fill="#1A2E44"/>
<path d="M1266.48 339.045C1260.87 310.731 1255.23 282.379 1249.62 254.066L1247.22 241.959C1246.6 238.749 1238.59 240.76 1239.25 244.087C1244.86 272.4 1250.51 300.752 1256.11 329.065L1258.51 341.172C1259.13 344.382 1267.14 342.371 1266.48 339.045Z" fill="#1A2E44"/>
<path d="M1807.96 586.625H1517.98C1510.36 586.625 1503.55 591.499 1501.12 598.732L1428.55 812.783C1424.65 824.31 1433.23 836.3 1445.42 836.3H1746.38C1754.31 836.3 1761.31 831.04 1763.48 823.42L1825.02 609.368C1828.3 597.997 1819.76 586.664 1807.92 586.664L1807.96 586.625Z" fill="#1A2E44"/>
<path d="M1806.6 583.57H1520.11C1513.65 583.57 1507.65 584.576 1502.89 589.604C1499.37 593.317 1498.1 598.23 1496.51 602.949C1482.2 645.186 1467.89 687.424 1453.54 729.701C1446.42 750.704 1439.3 771.668 1432.19 792.671C1427.7 805.938 1419.73 820.984 1431.68 833.052C1440.04 841.484 1453.65 839.396 1464.52 839.396C1484.13 839.396 1503.74 839.396 1523.35 839.396C1575.15 839.396 1626.9 839.396 1678.69 839.396C1697.02 839.396 1715.32 839.396 1733.65 839.396C1737.87 839.396 1742.05 839.396 1746.26 839.396C1755.55 839.318 1763.09 834.329 1766.03 825.316C1769.59 814.293 1772.45 802.998 1775.62 791.897L1796.24 720.186C1806.64 684.021 1818.01 647.971 1827.45 611.574C1830.93 598.191 1821.26 584.112 1807.18 583.609C1803.55 583.493 1805.95 589.682 1808.61 589.759C1818.48 590.107 1824.9 597.766 1822.46 607.551C1822.23 608.441 1821.96 609.331 1821.69 610.22L1816.93 626.775C1810.9 647.739 1804.86 668.704 1798.83 689.668C1786.8 731.48 1774.81 773.254 1762.78 815.066C1761.5 819.437 1760.61 824.195 1757.52 827.714C1753.11 832.704 1747.27 833.246 1741.2 833.246H1700.66C1651.42 833.246 1602.18 833.246 1552.94 833.246C1517.55 833.246 1482.12 833.246 1446.73 833.246C1438.26 833.246 1429.71 829.029 1430.14 819.166C1430.33 815.376 1432.19 811.314 1433.39 807.756C1439.15 790.776 1444.91 773.795 1450.68 756.776C1465.99 711.638 1481.27 666.499 1496.59 621.399L1502.43 604.186C1505.1 596.257 1510.05 590.107 1519.29 589.798C1527.72 589.527 1536.23 589.798 1544.67 589.798H1809.23C1812.17 589.798 1809.35 583.609 1806.56 583.609L1806.6 583.57Z" fill="#1A2E44"/>
<path d="M1800.22 578.895H1515.61C1504.78 578.895 1495.15 585.818 1491.67 596.068L1420.85 805.014C1416.94 816.54 1425.53 828.531 1437.71 828.531H1738.68C1746.61 828.531 1753.61 823.271 1755.77 815.651L1817.31 601.599C1820.6 590.228 1812.05 578.895 1800.22 578.895Z" fill="#F9C273"/>
<path d="M1798.86 575.839H1516.5C1507.76 575.839 1499.64 578.663 1493.84 585.586C1490.36 589.802 1488.89 594.908 1487.15 599.936C1472.99 641.749 1458.8 683.561 1444.64 725.335L1423.67 787.222C1422.01 792.095 1420.35 796.93 1418.72 801.804C1415.4 811.86 1418.8 822.923 1428.05 828.57C1436.32 833.637 1449.71 831.626 1458.99 831.626C1478.71 831.626 1498.44 831.626 1518.13 831.626C1569.88 831.626 1621.64 831.626 1673.35 831.626C1691.22 831.626 1709.05 831.626 1726.92 831.626C1730.87 831.626 1734.85 831.626 1738.8 831.626C1747.96 831.548 1755.39 826.327 1758.21 817.469C1761.85 806.097 1764.83 794.493 1768.11 783.044L1788.69 711.449L1809.31 639.776C1812.75 627.785 1816.54 615.834 1819.67 603.766C1823.12 590.383 1813.49 576.303 1799.41 575.8C1795.77 575.684 1798.17 581.873 1800.84 581.95C1810.7 582.299 1817.12 589.918 1814.68 599.743C1814.45 600.633 1814.18 601.522 1813.91 602.412L1809.15 618.967L1791.32 680.97C1779.29 722.821 1767.26 764.71 1755.2 806.561C1754.11 810.275 1753.34 814.568 1751.25 817.856C1747.27 824.161 1740.65 825.437 1733.88 825.437H1694.97C1646.27 825.437 1597.58 825.437 1548.88 825.437C1512.6 825.437 1476.32 825.437 1440 825.437C1433.61 825.437 1427.08 824.586 1423.71 818.127C1420.77 812.518 1423.17 806.871 1425.03 801.456L1441.47 752.991C1456.71 708.045 1471.95 663.1 1487.19 618.154C1491.63 604.965 1494.65 586.979 1510.24 582.801C1514.15 581.757 1518.17 581.95 1522.15 581.95H1801.38C1804.32 581.95 1801.49 575.762 1798.71 575.762L1798.86 575.839Z" fill="#1A2E44"/>
<path d="M1491.44 600.17C1508.97 620.012 1526.49 639.893 1543.97 659.736L1610.58 735.238C1611.16 735.896 1612.97 738.68 1613.82 738.758C1615.06 738.835 1618.35 735.779 1619.32 735.122L1650.49 714.622C1683.53 692.923 1716.6 671.185 1749.63 649.486L1793.26 620.824L1808.11 611.077C1810.66 609.375 1813.99 607.867 1816.23 605.74C1816.54 605.469 1816.97 605.275 1817.28 605.043C1818.36 604.347 1816.27 598.816 1817.28 598.158C1798.71 610.342 1780.15 622.565 1761.62 634.749C1728.16 656.758 1694.66 678.727 1661.21 700.736C1649.06 708.704 1636.96 716.672 1624.81 724.64L1615.53 730.712C1614.02 731.718 1614.33 731.912 1613.13 731.254C1610.5 729.823 1607.91 725.336 1605.97 723.131L1592.51 707.892L1554.14 664.377C1541.15 649.641 1528.11 634.865 1515.11 620.128C1507.61 611.619 1500.49 602.49 1492.49 594.484C1492.1 594.097 1491.75 593.633 1491.4 593.246C1492.53 594.523 1490.24 598.816 1491.4 600.131L1491.44 600.17Z" fill="#1A2E44" stroke="#1A2E44" stroke-width="2.6575"/>
<path d="M1426.85 825.898C1443.44 810.697 1459.99 795.457 1476.59 780.256C1503.01 756.004 1529.42 731.791 1555.84 707.539C1561.88 702.008 1567.95 696.438 1573.98 690.907C1575.18 689.785 1570.93 684.448 1570.04 685.298C1553.44 700.499 1536.89 715.739 1520.29 730.94C1493.88 755.192 1467.46 779.405 1441.04 803.657C1435.01 809.188 1428.93 814.758 1422.9 820.289C1421.7 821.411 1425.96 826.749 1426.85 825.898Z" fill="#1A2E44"/>
<path d="M1682.67 686.888C1701.89 726.379 1721.12 765.832 1740.34 805.324C1743.05 810.855 1745.72 816.386 1748.43 821.917C1748.97 823.039 1750.98 823.774 1752.06 824.161C1752.33 824.238 1755.04 825.089 1754.65 824.277C1735.43 784.785 1716.21 745.332 1696.98 705.841C1694.27 700.31 1691.61 694.778 1688.9 689.247C1688.36 688.125 1686.35 687.391 1685.26 687.004C1684.99 686.926 1682.28 686.075 1682.67 686.888Z" fill="#1A2E44" stroke="#1A2E44" stroke-width="1.99313"/>
<path d="M1464.48 509.117H1105.77C1100.86 509.117 1096.52 512.25 1094.94 516.853L1035.53 692.147H1402.4L1464.44 509.078L1464.48 509.117Z" fill="white"/>
<path d="M1463.36 506.138H1114.12C1111.15 506.138 1108.13 506.06 1105.15 506.138C1098.38 506.331 1093.93 510.199 1091.77 516.349C1086.31 532.014 1081.09 547.795 1075.79 563.499C1061.79 604.809 1047.79 646.118 1033.79 687.428L1032.9 690.097C1032.16 692.301 1034.37 695.164 1036.69 695.164H1388.55C1393.12 695.164 1398.42 695.898 1402.94 695.164C1403.14 695.164 1403.37 695.164 1403.6 695.164C1404.14 695.164 1404.92 694.854 1405.15 694.274C1412.15 673.658 1419.11 653.08 1426.11 632.464C1437.25 599.626 1448.39 566.748 1459.53 533.909C1462.08 526.367 1464.67 518.786 1467.23 511.243C1468.16 508.497 1462.93 504.088 1461.93 507.105C1454.93 527.721 1447.97 548.298 1440.96 568.914C1429.82 601.753 1418.69 634.63 1407.55 667.469C1404.99 675.012 1402.4 682.593 1399.85 690.135L1401.4 689.246H1049.53C1045.08 689.246 1039.51 688.317 1035.14 689.246C1034.95 689.284 1034.68 689.246 1034.48 689.246L1038.27 694.313C1050.54 658.147 1062.8 621.982 1075.06 585.856L1094.9 527.373C1096.29 523.234 1097.45 517.084 1101.01 514.299C1104.14 511.823 1107.86 512.172 1111.53 512.172H1371.53C1402.4 512.172 1433.38 512.906 1464.25 512.172C1464.71 512.172 1465.22 512.172 1465.68 512.172C1469.36 512.172 1466.26 506.215 1463.44 506.215L1463.36 506.138Z" fill="#1A2E44"/>
<path d="M1207.5 785.485C1209.39 779.916 1205.25 774.152 1199.41 774.152H982.732C977.82 774.152 973.488 777.285 971.902 781.888L885.067 1036.32C882.939 1042.9 887.813 1049.63 894.737 1049.63H1109.21C1114.2 1049.63 1118.65 1046.45 1120.28 1041.7L1207.54 785.408L1207.5 785.485Z" fill="white"/>
<path d="M1210.32 786.952C1212.68 777.824 1204.87 771.287 1196.47 771.209C1191.68 771.171 1186.84 771.209 1182.04 771.209H993.986C984.432 771.209 972.982 769.391 968.96 780.686C965.363 790.665 962.114 800.76 958.71 810.778C944.012 853.867 929.314 896.956 914.577 940.045C904.017 970.988 893.187 1001.85 882.898 1032.91C880.307 1040.69 883.595 1049.39 891.911 1052.02C895.198 1053.07 899.066 1052.68 902.47 1052.68H1106.04C1111.69 1052.68 1117.18 1052.45 1121.01 1047.34C1122.87 1044.87 1123.64 1041.69 1124.64 1038.79L1130.1 1022.78C1144.1 981.625 1158.14 940.432 1172.14 899.277C1184.17 863.962 1196.2 828.648 1208.19 793.334C1208.85 791.4 1209.51 789.505 1210.16 787.571C1211.09 784.825 1205.87 780.415 1204.87 783.432C1196.39 808.342 1187.92 833.251 1179.41 858.161C1164.56 901.752 1149.75 945.344 1134.89 988.897L1120.39 1031.52C1119.5 1034.15 1118.69 1036.86 1117.68 1039.45C1115.44 1045.21 1110.84 1046.76 1105.38 1046.76H929.507C917.826 1046.76 906.029 1047.23 894.347 1046.76C882.666 1046.3 889.977 1031.87 892.104 1025.6L908.195 978.415C923.086 934.707 938.017 891.038 952.908 847.33L969.501 798.71C972.093 791.129 974.104 777.63 984.006 777.166C994.411 776.702 1004.93 777.166 1015.34 777.166H1195.16C1199.95 777.166 1206.61 776.431 1204.63 784.051C1203.94 786.759 1209.35 790.626 1210.28 786.991L1210.32 786.952Z" fill="#1A2E44"/>
<path d="M1460.61 505.214H1101.9C1096.99 505.214 1092.66 508.347 1091.07 512.95L1031.66 688.245H1398.53L1460.57 505.176L1460.61 505.214Z" fill="white"/>
<path d="M1459.49 502.235H1110.26C1107.28 502.235 1104.26 502.158 1101.28 502.235C1094.51 502.429 1090.07 506.297 1087.9 512.447C1082.45 528.112 1077.22 543.893 1071.92 559.597C1057.92 600.906 1043.92 642.216 1029.92 683.525L1029.03 686.194C1028.29 688.399 1030.5 691.261 1032.82 691.261H1384.69C1389.25 691.261 1394.55 691.996 1399.07 691.261C1399.27 691.261 1399.5 691.261 1399.73 691.261C1400.27 691.261 1401.05 690.952 1401.28 690.372C1408.28 669.755 1415.24 649.178 1422.24 628.562C1433.38 595.723 1444.52 562.846 1455.66 530.007C1458.22 522.464 1460.81 514.883 1463.36 507.341C1464.29 504.595 1459.07 500.185 1458.06 503.202C1451.06 523.818 1444.1 544.396 1437.1 565.012L1403.68 663.567C1401.12 671.109 1398.53 678.69 1395.98 686.233L1397.53 685.343H1045.66C1041.21 685.343 1035.64 684.415 1031.27 685.343C1031.08 685.382 1030.81 685.343 1030.61 685.343L1034.41 690.41C1046.67 654.245 1058.93 618.08 1071.19 581.953L1091.03 523.47C1092.42 519.331 1093.58 513.181 1097.14 510.397C1100.28 507.921 1103.99 508.269 1107.66 508.269H1367.67C1398.53 508.269 1429.52 509.004 1460.38 508.269C1460.85 508.269 1461.35 508.269 1461.81 508.269C1465.49 508.269 1462.39 502.313 1459.57 502.313L1459.49 502.235Z" fill="#1A2E44"/>
<path d="M1404.45 549.109H1112.15C1111.57 549.109 1111.1 549.155 1110.75 549.258C1110.42 549.352 1109.99 549.552 1109.84 550.012C1109.68 550.475 1109.92 550.874 1110.09 551.09C1110.28 551.332 1110.55 551.555 1110.83 551.75C1111.4 552.147 1112.17 552.528 1112.91 552.81C1113.64 553.087 1114.44 553.3 1115.05 553.3H1407.35C1407.93 553.3 1408.4 553.255 1408.76 553.151C1409.08 553.057 1409.51 552.857 1409.67 552.397C1409.82 551.934 1409.58 551.535 1409.41 551.319C1409.22 551.077 1408.96 550.854 1408.67 550.659C1408.1 550.262 1407.34 549.881 1406.59 549.599C1405.86 549.323 1405.07 549.109 1404.45 549.109Z" fill="#1A2E44" stroke="#1A2E44" stroke-width="1.32875"/>
<path d="M1401.12 593.789H1108.82C1104.96 593.789 1100.86 595.336 1097.22 596.535C1095.64 597.077 1093.04 597.541 1091.81 598.663C1091.69 598.779 1089.91 599.707 1091.11 599.707H1383.41C1387.28 599.707 1391.38 598.16 1395.01 596.961C1396.64 596.419 1399.15 595.955 1400.43 594.833C1400.54 594.717 1402.32 593.789 1401.12 593.789Z" fill="#1A2E44"/>
<path d="M1377.03 640.164H1084.73C1081.02 640.164 1086.04 644.341 1088.02 644.341H1380.32C1384.03 644.341 1379 640.164 1377.03 640.164Z" fill="#1A2E44"/>
<path d="M1194.77 774.301H970.005L882.165 1033.38C880.269 1038.94 884.408 1044.75 890.326 1044.75H1113.89L1202.08 784.551C1203.78 779.522 1200.03 774.301 1194.73 774.301H1194.77Z" fill="white" stroke="#1A2E44" stroke-width="6.69153" stroke-linecap="round" stroke-linejoin="round"/>
<path d="M1103.14 909.52C1116.6 872.504 1097.53 842.527 1060.52 842.527C1023.5 842.527 982.616 872.504 969.117 909.52C955.656 946.536 974.725 976.513 1011.74 976.513C1048.76 976.513 1089.64 946.536 1103.14 909.52Z" stroke="#1A2E44" stroke-width="6.69153" stroke-linecap="round" stroke-linejoin="round"/>
<path d="M1060.52 842.527L1011.74 976.513" stroke="#1A2E44" stroke-width="6.69153" stroke-linecap="round" stroke-linejoin="round"/>
<path d="M969.114 909.523H1103.14" stroke="#1A2E44" stroke-width="6.69153" stroke-linecap="round" stroke-linejoin="round"/>
<path d="M971.048 956.09L1101.28 863.027" stroke="#1A2E44" stroke-width="6.69153" stroke-linecap="round" stroke-linejoin="round"/>
<path d="M1004.93 862.949L1067.44 956.012" stroke="#1A2E44" stroke-width="6.69153" stroke-linecap="round" stroke-linejoin="round"/>
<path d="M842.015 1048.96C845.535 1048.92 848.668 1046.64 849.789 1043.31L1046.86 469.352" stroke="#1A2E44" stroke-width="6.69153" stroke-linecap="round" stroke-linejoin="round"/>
<path d="M1299.47 1048.07C1307.59 1047.61 1311.08 1042.2 1313.36 1035.47L1319.31 1017.9L1340.94 954.316C1357.26 906.315 1373.58 858.275 1389.9 810.274L1396.52 790.78C1396.87 789.736 1397.25 788.691 1397.6 787.608C1400.08 779.447 1393.93 771.827 1385.73 771.208C1382.13 770.937 1385.19 776.933 1387.97 777.165C1395.44 777.745 1391.65 785.365 1390.25 789.426L1384.1 807.528L1363.14 869.222L1316.1 1007.5L1308.87 1028.77C1306.78 1034.89 1305.27 1041.65 1297.19 1042.12C1293.48 1042.35 1296.61 1048.23 1299.43 1048.07H1299.47Z" fill="#1A2E44"/>
</svg>
